<svg width="112" height="96" viewBox="0 0 112 96" fill="none" xmlns="http://www.w3.org/2000/svg">
<path d="M26.95 14.0999C22.9354 16.7404 19.3973 19.8741 16.45 23.3999L22.05 26.9999C24.6205 23.9441 27.6845 21.2169 31.15 18.8999L26.95 14.0999Z" fill="#ED8E32"/>
<g style="mix-blend-mode:hard-light" opacity="0.8">
<path d="M55 4C45.1109 4 35.444 6.52191 27.2215 11.2468C18.999 15.9717 12.5904 22.6874 8.80604 30.5446C5.02166 38.4018 4.0315 47.0477 5.96076 55.3889C7.89002 63.7301 12.6521 71.3919 19.6447 77.4056C26.6373 83.4192 35.5464 87.5146 45.2455 89.1738C54.9445 90.8329 64.9979 89.9814 74.1342 86.7268C83.2705 83.4722 91.0794 77.9608 96.5735 70.8895C102.068 63.8182 105 55.5046 105 47C105 35.5957 99.7322 24.6585 90.3553 16.5944C80.9785 8.53034 68.2608 4 55 4V4Z" fill="#FC380D"/>
</g>
<path d="M16.0998 36.8999L9.4498 35.0999C7.75917 39.2439 6.92993 43.6101 6.9998 47.9998H13.9998C13.9856 44.2262 14.6951 40.4762 16.0998 36.8999V36.8999Z" fill="#ED8E32"/>
<path d="M9.44995 61.2001C11.0731 65.3834 13.4338 69.3291 16.45 72.9001L22.05 69.3001C19.5197 66.2634 17.5156 62.9289 16.1 59.4001L9.44995 61.2001Z" fill="#ED8E32"/>
<path d="M27.3 81.8999C31.4662 84.4852 36.0695 86.5086 40.95 87.8999L43.05 82.1999C38.9331 80.9865 35.0428 79.2687 31.5 77.0999L27.3 81.8999Z" fill="#ED8E32"/>
<path d="M40.95 8.09983L43.05 13.7998C47.2224 12.5958 51.5974 11.9877 55.9999 11.9998V5.99983C50.8786 5.93994 45.7847 6.65072 40.95 8.09983V8.09983Z" fill="#ED8E32"/>
<path d="M84.7 81.9C88.8226 79.2663 92.4774 76.1337 95.55 72.6L89.95 69C87.3471 72.1314 84.1533 74.8689 80.5 77.1L84.7 81.9Z" fill="#ED8E32"/>
<path d="M95.8998 59.1L102.55 60.9C104.072 56.7206 104.897 52.3775 105 48H97.9998C98.014 51.7736 97.3045 55.5236 95.8998 59.1V59.1Z" fill="#ED8E32"/>
<path d="M102.2 34.7999C100.577 30.6166 98.2164 26.6709 95.2002 23.0999L89.6002 26.6999C92.1304 29.7365 94.1346 33.0711 95.5502 36.5999L102.2 34.7999Z" fill="#ED8E32"/>
<path d="M84.3502 13.8002C80.184 11.215 75.5807 9.19152 70.7002 7.80023L68.6002 13.5002C72.7171 14.7137 76.6075 16.4315 80.1502 18.6002L84.3502 13.8002Z" fill="#ED8E32"/>
<path d="M71.05 87.8998L68.95 82.1998C64.7775 83.4038 60.4026 84.0119 56 83.9998V89.9998C61.0869 89.74 66.1296 89.0364 71.05 87.8998V87.8998Z" fill="#ED8E32"/>
<path d="M50.4188 51.9958C50.6713 53.1713 49.4717 54.0647 48.5385 53.4376L45.356 51.2998L41.382 58.1363C40.3442 59.9213 41.5437 62.25 43.5009 62.25H47.5625C48.0802 62.25 48.5 62.7012 48.5 63.2578V66.6172C48.5 67.1737 48.0802 67.625 47.5625 67.625H43.509C37.6235 67.625 34.0322 60.6502 37.149 55.2894L41.1194 48.4541L37.9378 46.3168C36.994 45.683 37.2373 44.1365 38.319 43.868L46.9312 41.7306C47.604 41.5637 48.2751 42.0146 48.4304 42.7376L50.4188 51.9958V51.9958ZM58.1189 36.6338L61.3446 42.1831L58.1618 44.3211C57.2203 44.9533 57.4587 46.5008 58.543 46.7699L67.1552 48.9073C67.8327 49.0752 68.5001 48.6186 68.6544 47.9004L70.6426 38.6422C70.8924 37.4795 69.7059 36.5662 68.7623 37.2003L65.5837 39.3356L62.36 33.7857C59.4287 28.7439 52.578 28.7323 49.64 33.7857L48.2366 36.2016C47.9624 36.6736 48.096 37.2952 48.5351 37.5901L51.185 39.3702C51.624 39.6651 52.2025 39.5216 52.4769 39.0496L53.8801 36.6356C54.8732 34.9273 57.1592 34.9832 58.1189 36.6338V36.6338ZM74.8506 55.2894L72.701 51.5886C72.4267 51.1164 71.8482 50.9727 71.409 51.2677L68.7636 53.0447C68.3245 53.3397 68.1909 53.9614 68.4653 54.4335L70.6187 58.1382C71.6544 59.9196 70.458 62.2501 68.4987 62.2501H61V58.2204C61 57.0267 59.653 56.4246 58.8662 57.2703L52.6162 63.9874C52.128 64.5122 52.128 65.363 52.6162 65.8878L58.8662 72.6056C59.6476 73.4457 61 72.8572 61 71.6553V67.625H68.4906C74.3714 67.625 77.9699 60.6545 74.8506 55.2894Z" fill="white"/>
<path d="M56.131 92.9998C66.487 92.9998 76.6106 90.3676 85.2213 85.4361C93.8321 80.5045 100.543 73.495 104.506 65.2941C108.469 57.0932 109.506 48.0691 107.486 39.3631C105.466 30.657 100.479 22.66 93.1557 16.3833C88.2936 12.2158 82.5213 8.90989 76.1686 6.65442C69.8159 4.39896 63.0071 3.23809 56.1309 3.2381C42.2439 3.23812 28.9257 7.96664 19.1061 16.3834C9.28657 24.8002 3.77 36.2159 3.77002 48.119C3.77004 60.0221 9.28665 71.4377 19.1063 79.8545C23.9571 84.0351 29.7272 87.3496 36.0825 89.6059C42.4378 91.8623 49.2521 93.0159 56.131 92.9998V92.9998ZM56.131 9.23809C81.1431 9.23809 101.492 26.6799 101.492 48.1188C101.492 69.5578 81.1431 86.9998 56.131 86.9998C31.1189 86.9998 10.7701 69.558 10.7701 48.1188C10.7701 26.6797 31.1189 9.23809 56.131 9.23809V9.23809Z" fill="#9E250A"/>
</svg>
