<svg width="26" height="26" viewBox="0 0 26 26" fill="none" xmlns="http://www.w3.org/2000/svg">
<path fill-rule="evenodd" clip-rule="evenodd" d="M13 26C20.1797 26 26 20.1797 26 13C26 5.8203 20.1797 0 13 0C5.8203 0 0 5.8203 0 13C0 20.1797 5.8203 26 13 26Z" fill="#FC380D"/>
<path fill-rule="evenodd" clip-rule="evenodd" d="M17.8755 8.34218C17.466 7.9327 16.8021 7.93275 16.3925 8.3423L12.9337 11.8011L9.54105 8.40849C9.13157 7.99901 8.46761 7.99906 8.05806 8.40861C7.64851 8.81816 7.64846 9.48212 8.05794 9.8916L11.4506 13.2842L7.99175 16.7431C7.5822 17.1526 7.58214 17.8166 7.99163 18.2261C8.40111 18.6355 9.06507 18.6355 9.47462 18.2259L12.9334 14.7671L16.3261 18.1597C16.7356 18.5692 17.3995 18.5692 17.8091 18.1596C18.2186 17.7501 18.2187 17.0861 17.8092 16.6766L14.4166 13.284L17.8754 9.82517C18.2849 9.41562 18.285 8.75166 17.8755 8.34218Z" fill="#0B1D27"/>
</svg>
